# xmcd
#
# Track frame offsets:
#	150
#	9930
#	27681
#	41330
#	55383
#	74283
#	87279
#	98381
#	117816
#	134704
#	161388
#
# Disc length: 2343 seconds
#
# Revision: 0
# Processed by: cddbd v1.5.2PL0 Copyright (c) Steve Scherf et al.
# Submitted via: EasyCDDAExtractor 10.2.0.1
#
DISCID=8709250b
DTITLE=Various Artist - Zion Music Group Vol.32
DYEAR=2003
DGENRE=Gospel
TTITLE0=The Crossmen Quartet - The Old Landmark
TTITLE1=Southern Sound - Some Day
TTITLE2=The McGruders - How Can I Hold My Peace
TTITLE3=The Lesters - I Believe In The Lord
TTITLE4=Randy Swift - I Don't Want To Be Adjusted
TTITLE5=Living Sacrifice - It Feels To Feel Good
TTITLE6=The Newlife Quartet - I Want To Be More Like Jesus
TTITLE7=Jerry Bennett - The Promise
TTITLE8=Timothy Bourn - It's Not Too Good To Be True
TTITLE9=NMMC Mass Choir - Breathe On Me
TTITLE10=United Praise Choir - Together
EXTD=
EXTT0=
EXTT1=
EXTT2=
EXTT3=
EXTT4=
EXTT5=
EXTT6=
EXTT7=
EXTT8=
EXTT9=
EXTT10=
PLAYORDER=
